<svg xmlns="http://www.w3.org/2000/svg" width="24.156" height="26.825" viewBox="0 0 24.156 26.825">
  <path id="ic_bluetooth_audio_24px" d="M18.076,15.426l3.112,3.112a8.631,8.631,0,0,0,.59-3.125,8.769,8.769,0,0,0-.577-3.1Zm7.1-7.109-1.69,1.69A11.609,11.609,0,0,1,24.8,15.4a11.733,11.733,0,0,1-1.314,5.392L25.09,22.4a13.255,13.255,0,0,0,.08-14.083ZM20.047,9.659,12.389,2H11.047V12.18L4.891,6.024,3,7.915l7.5,7.5L3,22.91,4.891,24.8l6.156-6.156v10.18h1.341l7.659-7.659L14.28,15.412l5.767-5.754ZM13.73,7.137l2.522,2.522L13.73,12.18Zm2.522,14.029L13.73,23.688V18.645l2.522,2.522Z" transform="translate(-3 -2)" fill="#9ecbaa"/>
</svg>
