<svg xmlns="http://www.w3.org/2000/svg" width="24.239" height="24.409" viewBox="0 0 24.239 24.409">
  <path id="ic_alarm_24px" d="M26.239,6.538,20.664,1.86,19.1,3.714l5.575,4.678ZM9.126,3.714,7.575,1.86,2,6.526,3.563,8.38,9.126,3.714Zm5.6,5.587H12.908v7.272l5.757,3.454.909-1.491-4.848-2.872ZM14.12,4.454A10.908,10.908,0,1,0,25.027,15.361,10.909,10.909,0,0,0,14.12,4.454Zm0,19.391A8.484,8.484,0,1,1,22.6,15.361,8.478,8.478,0,0,1,14.12,23.845Z" transform="translate(-2 -1.86)" fill="#9ecbaa"/>
</svg>
