<?xml version="1.0" encoding="iso-8859-1"?>
<!-- Generator: Adobe Illustrator 19.0.0, SVG Export Plug-In . SVG Version: 6.00 Build 0)  -->
<svg version="1.1" id="Capa_1" xmlns="http://www.w3.org/2000/svg" xmlns:xlink="http://www.w3.org/1999/xlink" x="0px" y="0px"
	 viewBox="0 0 297 297" style="enable-background:new 0 0 297 297;" xml:space="preserve">
<g>
	
		<line style="fill:none;stroke:#000000;stroke-width:0;stroke-linecap:round;stroke-linejoin:round;" x1="76.604" y1="0.396" x2="76.604" y2="0.396"/>
	<g>
		<path d="M190.342,95.502c0-13.649-10.294-24-23.943-24h-32.825c-0.605-7-3.366-12.436-8.084-17.061
			c1.292-10.074-2.286-19.365-9.953-25.68c-1.779-11.929-10.016-24.349-28.765-27.495c-3.403-0.571-6.824-0.866-10.167-0.866
			c-15.331,0-30.828,5.78-51.604,19.295l-12.377,2.611C5.443,23.851,0,30.302,0,37.647v49.707c0,3.537,1.447,7.012,3.654,9.784
			c9.449,11.87,19.872,19.224,30.827,21.928c1.042,3.919,2.196,9.98,2.196,18.142c0,7.083,2.849,13.424,7.971,17.852
			c4.388,3.795,9.831,5.885,15.864,5.885C74.071,160.945,84,150.74,84,137.208v-17.705h82.398
			C180.048,119.502,190.342,109.152,190.342,95.502z M76.331,107.502c-0.116,0-0.229-0.091-0.346-0.08
			c-0.005,0.001-0.321-0.047-0.327-0.047C73.764,107.557,72,109.1,72,111.003v26.204c0,7.893-5.556,11.737-11.474,11.737
			c-6.024,0-11.947-3.984-11.947-11.737c0-13.955-2.753-22.972-4.285-26.83c-0.508-1.278-1.649-2.146-3.017-2.289
			c-12.925-1.35-22.857-11.644-28.254-18.424C12.499,89.006,12,88.196,12,87.354V37.647c0-1.74,1.446-3.244,3.146-3.609l13.78-2.94
			c0.444-0.096,0.93-0.277,1.31-0.527c19.543-12.879,33.393-18.175,46.339-18.175c2.751,0,5.477,0.239,8.196,0.695
			c17.09,2.868,19.039,15.419,19.132,20.333c0.023,1.246,0.732,2.361,1.795,3.014c9.838,6.04,8.475,15.57,7.076,20.169
			c-0.476,1.56,0.187,3.221,1.542,4.127c8.024,5.366,7.923,13.317,6.849,18.24c-0.503,2.309,1.24,4.528,3.602,4.528H166
			c16,0,16,24,0,24H76.331z"/>
		<path d="M293.596,199.867c-9.449-11.87-19.748-19.224-30.702-21.928c-1.043-3.919-2.133-9.98-2.133-18.142
			c0-7.083-2.819-13.424-7.941-17.853c-4.388-3.795-10.064-5.885-16.096-5.885c-13.56,0-23.723,10.205-23.723,23.737v17.705h-81.898
			c-13.649,0-23.943,10.351-23.943,24s10.294,24,23.943,24h32.825c0.605,7,3.367,12.436,8.084,17.061
			c-1.293,10.074,2.286,19.365,9.953,25.68c1.779,11.93,10.016,24.349,28.765,27.495c3.403,0.571,6.824,0.866,10.167,0.866
			c15.332,0,30.828-5.78,51.605-19.295l12.127-2.611c7.181-1.545,12.373-7.995,12.373-15.34v-49.707
			C297,206.114,295.803,202.639,293.596,199.867z M285,259.358c0,1.74-1.196,3.243-2.896,3.609l-13.654,2.94
			c-0.445,0.096-0.869,0.277-1.248,0.527c-19.543,12.879-33.361,18.175-46.308,18.175c-2.75,0-5.461-0.239-8.179-0.695
			c-17.091-2.868-19.033-15.419-19.126-20.333c-0.023-1.246-0.728-2.361-1.79-3.014c-9.838-6.04-8.472-15.571-7.073-20.169
			c0.475-1.56-0.187-3.221-1.541-4.127c-8.024-5.366-7.923-13.316-6.848-18.24c0.504-2.309-1.239-4.528-3.602-4.528H131
			c-16,0-16-24,0-24h90.168c0.117,0,0.23,0.091,0.346,0.08c0.006-0.001,0.072,0.047,0.078,0.047
			c1.895-0.182,3.409-1.725,3.409-3.628v-26.204c0-7.893,5.806-11.737,11.724-11.737c6.023,0,12.072,3.984,12.072,11.737
			c0,13.955,2.816,22.972,4.347,26.83c0.508,1.278,1.68,2.146,3.048,2.289c12.925,1.35,22.623,11.643,28.021,18.424
			c0.523,0.658,0.788,1.469,0.788,2.311V259.358z"/>
	</g>
</g>
<g>
</g>
<g>
</g>
<g>
</g>
<g>
</g>
<g>
</g>
<g>
</g>
<g>
</g>
<g>
</g>
<g>
</g>
<g>
</g>
<g>
</g>
<g>
</g>
<g>
</g>
<g>
</g>
<g>
</g>
</svg>
