<svg xmlns="http://www.w3.org/2000/svg" width="34.347" height="21.467" viewBox="0 0 34.347 21.467">
  <g id="menu_3_" data-name="menu (3)" transform="translate(0 -96)" opacity="0.999">
    <g id="Group_2" data-name="Group 2" transform="translate(0 96)">
      <g id="Group_1" data-name="Group 1" transform="translate(0 0)">
        <path id="Path_1" data-name="Path 1" d="M33.631,96H.716a.716.716,0,0,0,0,1.431H33.631a.716.716,0,1,0,0-1.431Z" transform="translate(0 -96)" fill="#9ecbaa"/>
      </g>
    </g>
    <g id="Group_4" data-name="Group 4" transform="translate(0 106.018)">
      <g id="Group_3" data-name="Group 3" transform="translate(0 0)">
        <path id="Path_2" data-name="Path 2" d="M33.631,245.333H.716a.716.716,0,0,0,0,1.431H33.631a.716.716,0,1,0,0-1.431Z" transform="translate(0 -245.333)" fill="#9ecbaa"/>
      </g>
    </g>
    <g id="Group_6" data-name="Group 6" transform="translate(0 116.035)">
      <g id="Group_5" data-name="Group 5">
        <path id="Path_3" data-name="Path 3" d="M33.631,394.667H.716a.716.716,0,1,0,0,1.431H33.631a.716.716,0,1,0,0-1.431Z" transform="translate(0 -394.667)" fill="#9ecbaa"/>
      </g>
    </g>
  </g>
</svg>
