<svg xmlns="http://www.w3.org/2000/svg" width="39" height="10.4" viewBox="0 0 39 10.4">
  <g id="more" transform="translate(0 -22)">
    <path id="Path_7" data-name="Path 7" d="M5.2,22a5.2,5.2,0,1,0,5.2,5.2A5.206,5.206,0,0,0,5.2,22Zm0,9.1a3.9,3.9,0,1,1,3.9-3.9A3.9,3.9,0,0,1,5.2,31.1Z" fill="#fff"/>
    <path id="Path_8" data-name="Path 8" d="M49.2,22a5.2,5.2,0,1,0,5.2,5.2A5.206,5.206,0,0,0,49.2,22Zm0,9.1a3.9,3.9,0,1,1,3.9-3.9A3.9,3.9,0,0,1,49.2,31.1Z" transform="translate(-15.4)" fill="#fff"/>
    <path id="Path_9" data-name="Path 9" d="M27.2,22a5.2,5.2,0,1,0,5.2,5.2A5.206,5.206,0,0,0,27.2,22Zm0,9.1a3.9,3.9,0,1,1,3.9-3.9A3.9,3.9,0,0,1,27.2,31.1Z" transform="translate(-7.7)" fill="#fff"/>
  </g>
</svg>
