<svg xmlns="http://www.w3.org/2000/svg" width="24.156" height="23.623" viewBox="0 0 24.156 23.623">
  <path id="ic_notifications_active_24px" d="M8.753,4.414,7.021,2.682a12.629,12.629,0,0,0-4.991,9.51H4.453A10.231,10.231,0,0,1,8.753,4.414Zm15.01,7.777h2.423a12.706,12.706,0,0,0-4.991-9.51l-1.72,1.732A10.291,10.291,0,0,1,23.763,12.191Zm-2.387.606c0-3.719-1.987-6.832-5.451-7.656V4.317a1.817,1.817,0,0,0-3.634,0v.824C8.814,5.965,6.839,9.066,6.839,12.8v6.057L4.417,21.277v1.211H23.8V21.277l-2.423-2.423ZM14.108,26.123a2.122,2.122,0,0,0,.485-.048,2.458,2.458,0,0,0,1.744-1.429,2.432,2.432,0,0,0,.182-.945H11.673A2.44,2.44,0,0,0,14.108,26.123Z" transform="translate(-2.03 -2.5)" fill="#9ecbaa"/>
</svg>
