<svg xmlns="http://www.w3.org/2000/svg" width="20.558" height="34" viewBox="0 0 20.558 34">
  <path id="ic_directions_walk_24px" d="M17.86,7.826A3.163,3.163,0,1,0,14.7,4.663,3.172,3.172,0,0,0,17.86,7.826ZM12.009,13.2,7.581,35.5H10.9l2.847-12.651,3.321,3.163V35.5h3.163V23.64l-3.321-3.163.949-4.744a11.58,11.58,0,0,0,8.7,3.953V16.523a7.779,7.779,0,0,1-6.8-3.8L18.177,10.2a3.261,3.261,0,0,0-2.688-1.581c-.474,0-.791.158-1.265.158L6,12.253v7.433H9.163V14.309L12.009,13.2" transform="translate(-6 -1.5)" fill="#9ecbaa"/>
</svg>
