<?xml version="1.0" encoding="utf-8"?>
<!-- Generator: Adobe Illustrator 22.0.1, SVG Export Plug-In . SVG Version: 6.00 Build 0)  -->
<svg version="1.1" id="Layer_1" xmlns="http://www.w3.org/2000/svg" xmlns:xlink="http://www.w3.org/1999/xlink" x="0px" y="0px"
	 viewBox="0 0 33.1 32.3" style="enable-background:new 0 0 33.1 32.3;" xml:space="preserve">
<style type="text/css">
	.st0{fill:#1D1E28;}
</style>
<g id="photogram_1_" transform="translate(0 -0.586)">
	<g id="Group_42" transform="translate(0 0.586)">
		<path id="Path_995" class="st0" d="M3.9,8.6H2.1C1.9,8.6,1.7,8.8,1.7,9l0,0v1.8c0,0.2,0.2,0.4,0.4,0.4c0,0,0,0,0,0h1.8
			c0.2,0,0.4-0.2,0.4-0.4l0,0V9C4.3,8.8,4.1,8.6,3.9,8.6L3.9,8.6z M3.5,10.4h-1v-1h1V10.4z"/>
		<path id="Path_996" class="st0" d="M3.9,3.7H2.1c-0.2,0-0.4,0.2-0.4,0.4l0,0V6c0,0.2,0.2,0.4,0.4,0.4c0,0,0,0,0,0h1.8
			c0.2,0,0.4-0.2,0.4-0.4l0,0V4.2C4.3,3.9,4.1,3.7,3.9,3.7z M3.5,5.6h-1v-1h1V5.6z"/>
		<path id="Path_997" class="st0" d="M29.2,6.4h1.8c0.2,0,0.4-0.2,0.4-0.4V4.1c0-0.2-0.2-0.4-0.4-0.4h-1.8c-0.2,0-0.4,0.2-0.4,0.4V6
			C28.8,6.2,29,6.4,29.2,6.4C29.2,6.4,29.2,6.4,29.2,6.4z M29.7,4.5h1v1h-1V4.5z"/>
		<path id="Path_998" class="st0" d="M3.9,13.6H2.1c-0.2,0-0.4,0.2-0.4,0.4v1.8c0,0.2,0.2,0.4,0.4,0.4h1.8c0.2,0,0.4-0.2,0.4-0.4V14
			C4.3,13.8,4.1,13.6,3.9,13.6C3.9,13.6,3.9,13.6,3.9,13.6z M3.5,15.4h-1v-1h1V15.4z"/>
		<path id="Path_999" class="st0" d="M3.9,18.6H2.1c-0.2,0-0.4,0.2-0.4,0.4v1.8c0,0.2,0.2,0.4,0.4,0.4h1.8c0.2,0,0.4-0.2,0.4-0.4V19
			C4.3,18.7,4.1,18.6,3.9,18.6z M3.5,20.4h-1v-1h1V20.4z"/>
		<path id="Path_1000" class="st0" d="M3.9,23.5H2.1c-0.2,0-0.4,0.2-0.4,0.4v1.8c0,0.2,0.2,0.4,0.4,0.4h1.8c0.2,0,0.4-0.2,0.4-0.4
			V24C4.3,23.7,4.1,23.5,3.9,23.5z M3.5,25.4h-1v-1h1V25.4z"/>
		<path id="Path_1001" class="st0" d="M29.2,11.2h1.8c0.2,0,0.4-0.2,0.4-0.4V9c0-0.2-0.2-0.4-0.4-0.4h-1.8c-0.2,0-0.4,0.2-0.4,0.4
			v1.8C28.8,11,29,11.2,29.2,11.2z M29.7,9.4h1v1h-1V9.4z"/>
		<path id="Path_1002" class="st0" d="M29.2,16.2h1.8c0.2,0,0.4-0.2,0.4-0.4V14c0-0.2-0.2-0.4-0.4-0.4h-1.8c-0.2,0-0.4,0.2-0.4,0.4
			v1.8C28.8,16,29,16.2,29.2,16.2z M29.7,14.4h1v1h-1V14.4z"/>
		<path id="Path_1003" class="st0" d="M29.2,21.2h1.8c0.2,0,0.4-0.2,0.4-0.4v-1.8c0-0.2-0.2-0.4-0.4-0.4h-1.8
			c-0.2,0-0.4,0.2-0.4,0.4v1.8C28.8,21,29,21.2,29.2,21.2z M29.7,19.4h1v1h-1V19.4z"/>
		<path id="Path_1004" class="st0" d="M29.2,26.2h1.8c0.2,0,0.4-0.2,0.4-0.4v-1.8c0-0.2-0.2-0.4-0.4-0.4h-1.8
			c-0.2,0-0.4,0.2-0.4,0.4v1.8C28.8,26,29,26.2,29.2,26.2C29.2,26.2,29.2,26.2,29.2,26.2z M29.7,24.3h1v1h-1V24.3z"/>
		<path id="Path_1005" class="st0" d="M32.7,0h-5.1c-0.2,0-0.5,0.2-0.5,0.5v2.9H6V0.5C6,0.2,5.8,0,5.5,0H0.4C0.2,0,0,0.2,0,0.5v31.4
			c0,0.2,0.2,0.4,0.4,0.5h1.3c0.2,0,0.5-0.2,0.5-0.5v-1.4h1.1v1.4c0,0.2,0.2,0.4,0.4,0.4h1.7c0.2,0,0.4-0.2,0.4-0.5v-2.1h21.2v2.1
			c0,0.2,0.2,0.5,0.5,0.5h1.6c0.2,0,0.5-0.2,0.5-0.5v-1.4h1.1v1.4c0,0.2,0.2,0.4,0.5,0.5h1.5c0.2,0,0.5-0.2,0.5-0.5V0.5
			C33.1,0.2,32.9,0,32.7,0z M32.2,31.4h-0.6V30c0-0.2-0.2-0.5-0.5-0.5c0,0,0,0,0,0h-2c-0.2,0-0.5,0.2-0.5,0.5v1.4H28v-2.1
			c0-0.2-0.2-0.5-0.5-0.5H5.5c-0.2,0-0.5,0.2-0.5,0.5v2.1H4.3V30c0-0.2-0.2-0.5-0.5-0.5c0,0,0,0,0,0h-2c-0.2,0-0.4,0.2-0.4,0.5v1.4
			H0.9V0.9h4.2v2.9c0,0.2,0.2,0.5,0.5,0.5h22.1C27.8,4.2,28,4,28,3.8V0.9h4.2V31.4z"/>
		<path id="Path_1006" class="st0" d="M27.6,5.7H5.5c-0.2,0-0.5,0.2-0.5,0.5V27c0,0.2,0.2,0.5,0.5,0.5c0,0,0,0,0,0h22.1
			c0.2,0,0.5-0.2,0.5-0.5V6.2C28,5.9,27.8,5.7,27.6,5.7z M27.1,26.5H6V6.6h21.2L27.1,26.5z"/>
	</g>
</g>
</svg>
