<svg xmlns="http://www.w3.org/2000/svg" width="33.103" height="32.319" viewBox="0 0 33.103 32.319">
  <g id="photogram_1_" data-name="photogram (1)" transform="translate(0 -0.586)">
    <g id="Group_42" data-name="Group 42" transform="translate(0 0.586)">
      <path id="Path_995" data-name="Path 995" d="M4.736,13.457H2.908a.418.418,0,0,0-.418.418V15.7a.418.418,0,0,0,.418.418H4.736a.418.418,0,0,0,.418-.418V13.875A.418.418,0,0,0,4.736,13.457Zm-.418,1.828H3.325v-.993h.993Z" transform="translate(-0.826 -4.856)" fill="#97c2a3"/>
      <path id="Path_996" data-name="Path 996" d="M4.736,6.175H2.908a.418.418,0,0,0-.418.418V8.421a.418.418,0,0,0,.418.418H4.736a.418.418,0,0,0,.418-.418V6.593A.418.418,0,0,0,4.736,6.175ZM4.318,8H3.325V7.01h.993Z" transform="translate(-0.826 -2.44)" fill="#97c2a3"/>
      <path id="Path_997" data-name="Path 997" d="M43.541,8.8h1.828a.418.418,0,0,0,.418-.418V6.55a.418.418,0,0,0-.418-.418H43.541a.418.418,0,0,0-.418.418V8.378A.418.418,0,0,0,43.541,8.8Zm.418-1.828h.993V7.96h-.993Z" transform="translate(-14.307 -2.426)" fill="#97c2a3"/>
      <path id="Path_998" data-name="Path 998" d="M4.736,20.907H2.908a.418.418,0,0,0-.418.418v1.829a.418.418,0,0,0,.418.418H4.736a.418.418,0,0,0,.418-.418V21.325A.418.418,0,0,0,4.736,20.907Zm-.418,1.829H3.325v-.994h.993Z" transform="translate(-0.826 -7.328)" fill="#97c2a3"/>
      <path id="Path_999" data-name="Path 999" d="M4.736,28.357H2.908a.418.418,0,0,0-.418.418V30.6a.418.418,0,0,0,.418.418H4.736a.418.418,0,0,0,.418-.418V28.775A.418.418,0,0,0,4.736,28.357Zm-.418,1.829H3.325v-.994h.993Z" transform="translate(-0.826 -9.8)" fill="#97c2a3"/>
      <path id="Path_1000" data-name="Path 1000" d="M4.736,35.806H2.908a.418.418,0,0,0-.418.418v1.829a.418.418,0,0,0,.418.418H4.736a.418.418,0,0,0,.418-.418V36.224A.418.418,0,0,0,4.736,35.806Zm-.418,1.83H3.325v-.994h.993Z" transform="translate(-0.826 -12.271)" fill="#97c2a3"/>
      <path id="Path_1001" data-name="Path 1001" d="M43.541,16.078h1.828a.418.418,0,0,0,.418-.418V13.832a.418.418,0,0,0-.418-.418H43.541a.418.418,0,0,0-.418.418V15.66A.418.418,0,0,0,43.541,16.078Zm.418-1.828h.993v.993h-.993Z" transform="translate(-14.307 -4.842)" fill="#97c2a3"/>
      <path id="Path_1002" data-name="Path 1002" d="M43.541,23.528h1.828a.418.418,0,0,0,.418-.418V21.282a.418.418,0,0,0-.418-.418H43.541a.418.418,0,0,0-.418.418v1.829A.418.418,0,0,0,43.541,23.528Zm.418-1.829h.993v.994h-.993Z" transform="translate(-14.307 -7.314)" fill="#97c2a3"/>
      <path id="Path_1003" data-name="Path 1003" d="M43.541,30.978h1.828a.418.418,0,0,0,.418-.418V28.732a.418.418,0,0,0-.418-.418H43.541a.418.418,0,0,0-.418.418v1.829A.418.418,0,0,0,43.541,30.978Zm.418-1.829h.993v.994h-.993Z" transform="translate(-14.307 -9.785)" fill="#97c2a3"/>
      <path id="Path_1004" data-name="Path 1004" d="M43.541,38.428h1.828a.418.418,0,0,0,.418-.418v-1.83a.418.418,0,0,0-.418-.418H43.541a.418.418,0,0,0-.418.418V38.01A.418.418,0,0,0,43.541,38.428Zm.418-1.83h.993v.994h-.993Z" transform="translate(-14.307 -12.257)" fill="#97c2a3"/>
      <path id="Path_1005" data-name="Path 1005" d="M32.65.586H27.581a.452.452,0,0,0-.452.451V3.9H5.971V1.037A.452.452,0,0,0,5.52.586H.45A.452.452,0,0,0,0,1.037V32.454a.452.452,0,0,0,.45.451H1.792a.452.452,0,0,0,.452-.451V31.042H3.353v1.412A.452.452,0,0,0,3.8,32.9H5.521a.452.452,0,0,0,.45-.451V30.372H27.13v2.082a.452.452,0,0,0,.452.451h1.6a.452.452,0,0,0,.452-.451V31.042h1.111v1.412a.452.452,0,0,0,.45.451h1.454a.452.452,0,0,0,.452-.451V1.037A.453.453,0,0,0,32.65.586ZM32.2,32h-.551V30.591a.451.451,0,0,0-.452-.451H29.183a.452.452,0,0,0-.452.451V32h-.7V29.921a.452.452,0,0,0-.452-.451H5.52a.452.452,0,0,0-.452.451V32H4.255V30.591A.451.451,0,0,0,3.8,30.14H1.791a.452.452,0,0,0-.45.451V32H.9V1.488H5.068V4.354a.452.452,0,0,0,.452.451H27.581a.452.452,0,0,0,.452-.451V1.488H32.2Z" transform="translate(0 -0.586)" fill="#97c2a3"/>
      <path id="Path_1006" data-name="Path 1006" d="M30.1,9.119H8.037a.452.452,0,0,0-.452.451v20.8a.451.451,0,0,0,.452.451H30.1a.452.452,0,0,0,.452-.451V9.57A.452.452,0,0,0,30.1,9.119Zm-.452,20.8H8.487V10.021H29.646Z" transform="translate(-2.517 -3.417)" fill="#97c2a3"/>
    </g>
  </g>
</svg>
