<?xml version="1.0" encoding="utf-8"?>
<!-- Generator: Adobe Illustrator 22.0.1, SVG Export Plug-In . SVG Version: 6.00 Build 0)  -->
<svg version="1.1" id="Layer_1" xmlns="http://www.w3.org/2000/svg" xmlns:xlink="http://www.w3.org/1999/xlink" x="0px" y="0px"
	 viewBox="0 0 33 33" style="enable-background:new 0 0 33 33;" xml:space="preserve">
<style type="text/css">
	.st0{fill:#1D1E28;}
</style>
<g id="time" transform="translate(0 -13.391)">
	<path id="Path_10" class="st0" d="M16.5,13.4C7.4,13.4,0,20.8,0,29.9s7.4,16.5,16.5,16.5S33,39,33,29.9
		C33,20.8,25.6,13.4,16.5,13.4z M16.5,45.3C8,45.3,1.1,38.4,1.1,29.9S8,14.5,16.5,14.5s15.4,6.9,15.4,15.4l0,0
		C31.9,38.4,25,45.3,16.5,45.3z"/>
	<path id="Path_11" class="st0" d="M16.5,16.7c-0.3,0-0.5,0.2-0.5,0.6v12.6H7.7c-0.3,0-0.6,0.2-0.6,0.5c0,0.3,0.2,0.6,0.6,0.6h8.8
		c0.3,0,0.5-0.2,0.5-0.5V17.2C17,16.9,16.8,16.7,16.5,16.7z"/>
</g>
</svg>
